<svg version="1.1" xmlns="http://www.w3.org/2000/svg" xmlns:xlink="http://www.w3.org/1999/xlink" role="img" width="464" height="74" viewbox="0 0 464 74"><title>logo.svg</title><desc>Generated by logo.svg, https://github.com/bubkoo/logo.svg</desc><path fill="#6ccb99" d="M34.41 14.24L27.78 14.24L27.78 7.62L34.41 7.62L34.41 14.24M26.85 14.24L20.22 14.24L20.22 7.62L26.85 7.62L26.85 14.24M34.41 21.80L27.78 21.80L27.78 15.18L34.41 15.18L34.41 21.80M57.09 44.48L50.46 44.48L50.46 37.86L57.09 37.86L57.09 44.48M19.29 14.24L12.66 14.24L12.66 7.62L19.29 7.62L19.29 14.24M34.41 29.36L27.78 29.36L27.78 22.74L34.41 22.74L34.41 29.36M49.53 44.48L42.90 44.48L42.90 37.86L49.53 37.86L49.53 44.48M57.09 52.04L50.46 52.04L50.46 45.42L57.09 45.42L57.09 52.04M11.73 14.24L5.10 14.24L5.10 7.62L11.73 7.62L11.73 14.24M34.41 36.92L27.78 36.92L27.78 30.30L34.41 30.30L34.41 36.92M41.97 44.48L35.34 44.48L35.34 37.86L41.97 37.86L41.97 44.48M57.09 59.60L50.46 59.60L50.46 52.98L57.09 52.98L57.09 59.60M11.73 21.80L5.10 21.80L5.10 15.18L11.73 15.18L11.73 21.80M34.41 44.48L27.78 44.48L27.78 37.86L34.41 37.86L34.41 44.48M49.53 59.60L42.90 59.60L42.90 52.98L49.53 52.98L49.53 59.60M11.73 29.36L5.10 29.36L5.10 22.74L11.73 22.74L11.73 29.36M41.97 59.60L35.34 59.60L35.34 52.98L41.97 52.98L41.97 59.60M11.73 36.92L5.10 36.92L5.10 30.30L11.73 30.30L11.73 36.92M34.41 59.60L27.78 59.60L27.78 52.98L34.41 52.98L34.41 59.60M11.73 44.48L5.10 44.48L5.10 37.86L11.73 37.86L11.73 44.48M26.85 59.60L20.22 59.60L20.22 52.98L26.85 52.98L26.85 59.60M11.73 52.04L5.10 52.04L5.10 45.42L11.73 45.42L11.73 52.04M19.29 59.60L12.66 59.60L12.66 52.98L19.29 52.98L19.29 59.60M11.73 59.60L5.10 59.60L5.10 52.98L11.73 52.98L11.73 59.60ZM117.64 14.24L111.02 14.24L111.02 7.62L117.64 7.62L117.64 14.24M110.08 14.24L103.46 14.24L103.46 7.62L110.08 7.62L110.08 14.24M117.64 21.80L111.02 21.80L111.02 15.18L117.64 15.18L117.64 21.80M102.52 14.24L95.90 14.24L95.90 7.62L102.52 7.62L102.52 14.24M117.64 29.36L111.02 29.36L111.02 22.74L117.64 22.74L117.64 29.36M94.96 14.24L88.34 14.24L88.34 7.62L94.96 7.62L94.96 14.24M117.64 36.92L111.02 36.92L111.02 30.30L117.64 30.30L117.64 36.92M87.40 14.24L80.78 14.24L80.78 7.62L87.40 7.62L87.40 14.24M117.64 44.48L111.02 44.48L111.02 37.86L117.64 37.86L117.64 44.48M79.84 14.24L73.22 14.24L73.22 7.62L79.84 7.62L79.84 14.24M94.96 29.36L88.34 29.36L88.34 22.74L94.96 22.74L94.96 29.36M117.64 52.04L111.02 52.04L111.02 45.42L117.64 45.42L117.64 52.04M72.28 14.24L65.66 14.24L65.66 7.62L72.28 7.62L72.28 14.24M94.96 36.92L88.34 36.92L88.34 30.30L94.96 30.30L94.96 36.92M117.64 59.60L111.02 59.60L111.02 52.98L117.64 52.98L117.64 59.60M72.28 21.80L65.66 21.80L65.66 15.18L72.28 15.18L72.28 21.80M94.96 44.48L88.34 44.48L88.34 37.86L94.96 37.86L94.96 44.48M110.08 59.60L103.46 59.60L103.46 52.98L110.08 52.98L110.08 59.60M72.28 29.36L65.66 29.36L65.66 22.74L72.28 22.74L72.28 29.36M102.52 59.60L95.90 59.60L95.90 52.98L102.52 52.98L102.52 59.60M72.28 36.92L65.66 36.92L65.66 30.30L72.28 30.30L72.28 36.92M94.96 59.60L88.34 59.60L88.34 52.98L94.96 52.98L94.96 59.60M72.28 44.48L65.66 44.48L65.66 37.86L72.28 37.86L72.28 44.48M87.40 59.60L80.78 59.60L80.78 52.98L87.40 52.98L87.40 59.60M72.28 52.04L65.66 52.04L65.66 45.42L72.28 45.42L72.28 52.04M79.84 59.60L73.22 59.60L73.22 52.98L79.84 52.98L79.84 59.60M72.28 59.60L65.66 59.60L65.66 52.98L72.28 52.98L72.28 59.60ZM178.19 14.24L171.57 14.24L171.57 7.62L178.19 7.62L178.19 14.24M170.63 14.24L164.01 14.24L164.01 7.62L170.63 7.62L170.63 14.24M178.19 21.80L171.57 21.80L171.57 15.18L178.19 15.18L178.19 21.80M163.07 14.24L156.45 14.24L156.45 7.62L163.07 7.62L163.07 14.24M178.19 29.36L171.57 29.36L171.57 22.74L178.19 22.74L178.19 29.36M155.51 14.24L148.89 14.24L148.89 7.62L155.51 7.62L155.51 14.24M178.19 36.92L171.57 36.92L171.57 30.30L178.19 30.30L178.19 36.92M147.95 14.24L141.33 14.24L141.33 7.62L147.95 7.62L147.95 14.24M178.19 44.48L171.57 44.48L171.57 37.86L178.19 37.86L178.19 44.48M140.39 14.24L133.77 14.24L133.77 7.62L140.39 7.62L140.39 14.24M155.51 29.36L148.89 29.36L148.89 22.74L155.51 22.74L155.51 29.36M178.19 52.04L171.57 52.04L171.57 45.42L178.19 45.42L178.19 52.04M132.83 14.24L126.21 14.24L126.21 7.62L132.83 7.62L132.83 14.24M178.19 59.60L171.57 59.60L171.57 52.98L178.19 52.98L178.19 59.60M132.83 21.80L126.21 21.80L126.21 15.18L132.83 15.18L132.83 21.80M155.51 44.48L148.89 44.48L148.89 37.86L155.51 37.86L155.51 44.48M170.63 59.60L164.01 59.60L164.01 52.98L170.63 52.98L170.63 59.60M132.83 29.36L126.21 29.36L126.21 22.74L132.83 22.74L132.83 29.36M147.95 44.48L141.33 44.48L141.33 37.86L147.95 37.86L147.95 44.48M163.07 59.60L156.45 59.60L156.45 52.98L163.07 52.98L163.07 59.60M132.83 36.92L126.21 36.92L126.21 30.30L132.83 30.30L132.83 36.92M140.39 44.48L133.77 44.48L133.77 37.86L140.39 37.86L140.39 44.48M155.51 59.60L148.89 59.60L148.89 52.98L155.51 52.98L155.51 59.60M132.83 44.48L126.21 44.48L126.21 37.86L132.83 37.86L132.83 44.48M147.95 59.60L141.33 59.60L141.33 52.98L147.95 52.98L147.95 59.60M132.83 52.04L126.21 52.04L126.21 45.42L132.83 45.42L132.83 52.04M140.39 59.60L133.77 59.60L133.77 52.98L140.39 52.98L140.39 59.60M132.83 59.60L126.21 59.60L126.21 52.98L132.83 52.98L132.83 59.60ZM238.74 14.24L232.12 14.24L232.12 7.62L238.74 7.62L238.74 14.24M231.18 14.24L224.56 14.24L224.56 7.62L231.18 7.62L231.18 14.24M238.74 21.80L232.12 21.80L232.12 15.18L238.74 15.18L238.74 21.80M223.62 14.24L217 14.24L217 7.62L223.62 7.62L223.62 14.24M238.74 29.36L232.12 29.36L232.12 22.74L238.74 22.74L238.74 29.36M216.06 14.24L209.44 14.24L209.44 7.62L216.06 7.62L216.06 14.24M238.74 36.92L232.12 36.92L232.12 30.30L238.74 30.30L238.74 36.92M208.50 14.24L201.88 14.24L201.88 7.62L208.50 7.62L208.50 14.24M238.74 44.48L232.12 44.48L232.12 37.86L238.74 37.86L238.74 44.48M200.94 14.24L194.32 14.24L194.32 7.62L200.94 7.62L200.94 14.24M216.06 29.36L209.44 29.36L209.44 22.74L216.06 22.74L216.06 29.36M238.74 52.04L232.12 52.04L232.12 45.42L238.74 45.42L238.74 52.04M193.38 14.24L186.76 14.24L186.76 7.62L193.38 7.62L193.38 14.24M216.06 36.92L209.44 36.92L209.44 30.30L216.06 30.30L216.06 36.92M238.74 59.60L232.12 59.60L232.12 52.98L238.74 52.98L238.74 59.60M193.38 21.80L186.76 21.80L186.76 15.18L193.38 15.18L193.38 21.80M216.06 44.48L209.44 44.48L209.44 37.86L216.06 37.86L216.06 44.48M231.18 59.60L224.56 59.60L224.56 52.98L231.18 52.98L231.18 59.60M193.38 29.36L186.76 29.36L186.76 22.74L193.38 22.74L193.38 29.36M223.62 59.60L217 59.60L217 52.98L223.62 52.98L223.62 59.60M193.38 36.92L186.76 36.92L186.76 30.30L193.38 30.30L193.38 36.92M216.06 59.60L209.44 59.60L209.44 52.98L216.06 52.98L216.06 59.60M193.38 44.48L186.76 44.48L186.76 37.86L193.38 37.86L193.38 44.48M208.50 59.60L201.88 59.60L201.88 52.98L208.50 52.98L208.50 59.60M193.38 52.04L186.76 52.04L186.76 45.42L193.38 45.42L193.38 52.04M200.94 59.60L194.32 59.60L194.32 52.98L200.94 52.98L200.94 59.60M193.38 59.60L186.76 59.60L186.76 52.98L193.38 52.98L193.38 59.60ZM276.62 36.92L269.99 36.92L269.99 30.30L276.62 30.30L276.62 36.92M269.06 36.92L262.43 36.92L262.43 30.30L269.06 30.30L269.06 36.92M276.62 44.48L269.99 44.48L269.99 37.86L276.62 37.86L276.62 44.48M261.50 36.92L254.87 36.92L254.87 30.30L261.50 30.30L261.50 36.92M276.62 52.04L269.99 52.04L269.99 45.42L276.62 45.42L276.62 52.04M253.94 36.92L247.31 36.92L247.31 30.30L253.94 30.30L253.94 36.92M276.62 59.60L269.99 59.60L269.99 52.98L276.62 52.98L276.62 59.60M253.94 44.48L247.31 44.48L247.31 37.86L253.94 37.86L253.94 44.48M269.06 59.60L262.43 59.60L262.43 52.98L269.06 52.98L269.06 59.60M253.94 52.04L247.31 52.04L247.31 45.42L253.94 45.42L253.94 52.04M261.50 59.60L254.87 59.60L254.87 52.98L261.50 52.98L261.50 59.60M253.94 59.60L247.31 59.60L247.31 52.98L253.94 52.98L253.94 59.60ZM337.24 14.24L330.62 14.24L330.62 7.62L337.24 7.62L337.24 14.24M329.68 14.24L323.06 14.24L323.06 7.62L329.68 7.62L329.68 14.24M337.24 21.80L330.62 21.80L330.62 15.18L337.24 15.18L337.24 21.80M322.12 14.24L315.50 14.24L315.50 7.62L322.12 7.62L322.12 14.24M337.24 29.36L330.62 29.36L330.62 22.74L337.24 22.74L337.24 29.36M314.56 14.24L307.94 14.24L307.94 7.62L314.56 7.62L314.56 14.24M329.68 29.36L323.06 29.36L323.06 22.74L329.68 22.74L329.68 29.36M337.24 36.92L330.62 36.92L330.62 30.30L337.24 30.30L337.24 36.92M307.00 14.24L300.38 14.24L300.38 7.62L307.00 7.62L307.00 14.24M322.12 29.36L315.50 29.36L315.50 22.74L322.12 22.74L322.12 29.36M337.24 44.48L330.62 44.48L330.62 37.86L337.24 37.86L337.24 44.48M299.44 14.24L292.82 14.24L292.82 7.62L299.44 7.62L299.44 14.24M314.56 29.36L307.94 29.36L307.94 22.74L314.56 22.74L314.56 29.36M337.24 52.04L330.62 52.04L330.62 45.42L337.24 45.42L337.24 52.04M291.88 14.24L285.26 14.24L285.26 7.62L291.88 7.62L291.88 14.24M337.24 59.60L330.62 59.60L330.62 52.98L337.24 52.98L337.24 59.60M291.88 21.80L285.26 21.80L285.26 15.18L291.88 15.18L291.88 21.80M314.56 44.48L307.94 44.48L307.94 37.86L314.56 37.86L314.56 44.48M329.68 59.60L323.06 59.60L323.06 52.98L329.68 52.98L329.68 59.60M291.88 29.36L285.26 29.36L285.26 22.74L291.88 22.74L291.88 29.36M307.00 44.48L300.38 44.48L300.38 37.86L307.00 37.86L307.00 44.48M322.12 59.60L315.50 59.60L315.50 52.98L322.12 52.98L322.12 59.60M291.88 36.92L285.26 36.92L285.26 30.30L291.88 30.30L291.88 36.92M299.44 44.48L292.82 44.48L292.82 37.86L299.44 37.86L299.44 44.48M314.56 59.60L307.94 59.60L307.94 52.98L314.56 52.98L314.56 59.60M291.88 44.48L285.26 44.48L285.26 37.86L291.88 37.86L291.88 44.48M307.00 59.60L300.38 59.60L300.38 52.98L307.00 52.98L307.00 59.60M291.88 52.04L285.26 52.04L285.26 45.42L291.88 45.42L291.88 52.04M299.44 59.60L292.82 59.60L292.82 52.98L299.44 52.98L299.44 59.60M291.88 59.60L285.26 59.60L285.26 52.98L291.88 52.98L291.88 59.60ZM397.79 14.24L391.17 14.24L391.17 7.62L397.79 7.62L397.79 14.24M390.23 14.24L383.61 14.24L383.61 7.62L390.23 7.62L390.23 14.24M397.79 21.80L391.17 21.80L391.17 15.18L397.79 15.18L397.79 21.80M382.67 14.24L376.05 14.24L376.05 7.62L382.67 7.62L382.67 14.24M397.79 29.36L391.17 29.36L391.17 22.74L397.79 22.74L397.79 29.36M375.11 14.24L368.49 14.24L368.49 7.62L375.11 7.62L375.11 14.24M397.79 36.92L391.17 36.92L391.17 30.30L397.79 30.30L397.79 36.92M367.55 14.24L360.93 14.24L360.93 7.62L367.55 7.62L367.55 14.24M375.11 21.80L368.49 21.80L368.49 15.18L375.11 15.18L375.11 21.80M397.79 44.48L391.17 44.48L391.17 37.86L397.79 37.86L397.79 44.48M359.99 14.24L353.37 14.24L353.37 7.62L359.99 7.62L359.99 14.24M375.11 29.36L368.49 29.36L368.49 22.74L375.11 22.74L375.11 29.36M397.79 52.04L391.17 52.04L391.17 45.42L397.79 45.42L397.79 52.04M352.43 14.24L345.81 14.24L345.81 7.62L352.43 7.62L352.43 14.24M390.23 52.04L383.61 52.04L383.61 45.42L390.23 45.42L390.23 52.04M375.11 36.92L368.49 36.92L368.49 30.30L375.11 30.30L375.11 36.92M352.43 21.80L345.81 21.80L345.81 15.18L352.43 15.18L352.43 21.80M375.11 44.48L368.49 44.48L368.49 37.86L375.11 37.86L375.11 44.48M390.23 59.60L383.61 59.60L383.61 52.98L390.23 52.98L390.23 59.60M352.43 29.36L345.81 29.36L345.81 22.74L352.43 22.74L352.43 29.36M382.67 59.60L376.05 59.60L376.05 52.98L382.67 52.98L382.67 59.60M352.43 36.92L345.81 36.92L345.81 30.30L352.43 30.30L352.43 36.92M375.11 59.60L368.49 59.60L368.49 52.98L375.11 52.98L375.11 59.60M367.55 59.60L360.93 59.60L360.93 52.98L367.55 52.98L367.55 59.60M352.43 44.48L345.81 44.48L345.81 37.86L352.43 37.86L352.43 44.48M359.99 52.04L353.37 52.04L353.37 45.42L359.99 45.42L359.99 52.04M352.43 52.04L345.81 52.04L345.81 45.42L352.43 45.42L352.43 52.04M359.99 59.60L353.37 59.60L353.37 52.98L359.99 52.98L359.99 59.60ZM458.34 14.24L451.72 14.24L451.72 7.62L458.34 7.62L458.34 14.24M450.78 14.24L444.16 14.24L444.16 7.62L450.78 7.62L450.78 14.24M458.34 21.80L451.72 21.80L451.72 15.18L458.34 15.18L458.34 21.80M443.22 14.24L436.60 14.24L436.60 7.62L443.22 7.62L443.22 14.24M458.34 29.36L451.72 29.36L451.72 22.74L458.34 22.74L458.34 29.36M435.66 14.24L429.04 14.24L429.04 7.62L435.66 7.62L435.66 14.24M458.34 36.92L451.72 36.92L451.72 30.30L458.34 30.30L458.34 36.92M428.10 14.24L421.48 14.24L421.48 7.62L428.10 7.62L428.10 14.24M458.34 44.48L451.72 44.48L451.72 37.86L458.34 37.86L458.34 44.48M420.54 14.24L413.92 14.24L413.92 7.62L420.54 7.62L420.54 14.24M435.66 29.36L429.04 29.36L429.04 22.74L435.66 22.74L435.66 29.36M458.34 52.04L451.72 52.04L451.72 45.42L458.34 45.42L458.34 52.04M412.98 14.24L406.36 14.24L406.36 7.62L412.98 7.62L412.98 14.24M458.34 59.60L451.72 59.60L451.72 52.98L458.34 52.98L458.34 59.60M412.98 21.80L406.36 21.80L406.36 15.18L412.98 15.18L412.98 21.80M435.66 44.48L429.04 44.48L429.04 37.86L435.66 37.86L435.66 44.48M450.78 59.60L444.16 59.60L444.16 52.98L450.78 52.98L450.78 59.60M412.98 29.36L406.36 29.36L406.36 22.74L412.98 22.74L412.98 29.36M428.10 44.48L421.48 44.48L421.48 37.86L428.10 37.86L428.10 44.48M443.22 59.60L436.60 59.60L436.60 52.98L443.22 52.98L443.22 59.60M412.98 36.92L406.36 36.92L406.36 30.30L412.98 30.30L412.98 36.92M420.54 44.48L413.92 44.48L413.92 37.86L420.54 37.86L420.54 44.48M435.66 59.60L429.04 59.60L429.04 52.98L435.66 52.98L435.66 59.60M412.98 44.48L406.36 44.48L406.36 37.86L412.98 37.86L412.98 44.48M428.10 59.60L421.48 59.60L421.48 52.98L428.10 52.98L428.10 59.60M412.98 52.04L406.36 52.04L406.36 45.42L412.98 45.42L412.98 52.04M420.54 59.60L413.92 59.60L413.92 52.98L420.54 52.98L420.54 59.60M412.98 59.60L406.36 59.60L406.36 52.98L412.98 52.98L412.98 59.60Z"></path></svg>