<svg version="1.1" xmlns="http://www.w3.org/2000/svg" xmlns:xlink="http://www.w3.org/1999/xlink" role="img" width="333" height="82" viewbox="0 0 333 82"><title>logo.svg</title><path fill="#6ccb99" d="M8.20 52.40L13.96 52.40L13.96 46.64L8.20 46.64L8.20 52.40M1 52.40L6.76 52.40L6.76 46.64L1 46.64L1 52.40M8.20 45.20L13.96 45.20L13.96 39.44L8.20 39.44L8.20 45.20M1 45.20L6.76 45.20L6.76 39.44L1 39.44L1 45.20M8.20 38.00L13.96 38.00L13.96 32.24L8.20 32.24L8.20 38.00M1 38.00L6.76 38.00L6.76 32.24L1 32.24L1 38.00M8.20 30.80L13.96 30.80L13.96 25.04L8.20 25.04L8.20 30.80M1 30.80L6.76 30.80L6.76 25.04L1 25.04L1 30.80M8.20 23.60L13.96 23.60L13.96 17.84L8.20 17.84L8.20 23.60M1 23.60L6.76 23.60L6.76 17.84L1 17.84L1 23.60M8.20 16.40L13.96 16.40L13.96 10.64L8.20 10.64L8.20 16.40M1 16.40L6.76 16.40L6.76 10.64L1 10.64L1 16.40M8.20 9.20L13.96 9.20L13.96 3.44L8.20 3.44L8.20 9.20M1 9.20L6.76 9.20L6.76 3.44L1 3.44L1 9.20M22.60 59.60L28.36 59.60L28.36 53.84L22.60 53.84L22.60 59.60M8.20 59.60L13.96 59.60L13.96 53.84L8.20 53.84L8.20 59.60M1 59.60L6.76 59.60L6.76 53.84L1 53.84L1 59.60M15.33 59.60L21.09 59.60L21.09 53.84L15.33 53.84L15.33 59.60ZM58.60 52.40L64.36 52.40L64.36 46.64L58.60 46.64L58.60 52.40M44.20 52.40L49.96 52.40L49.96 46.64L44.20 46.64L44.20 52.40M65.73 52.33L71.49 52.33L71.49 46.57L65.73 46.57L65.73 52.33M37.00 52.40L42.76 52.40L42.76 46.64L37.00 46.64L37.00 52.40M58.60 45.20L64.36 45.20L64.36 39.44L58.60 39.44L58.60 45.20M44.20 45.20L49.96 45.20L49.96 39.44L44.20 39.44L44.20 45.20M65.73 45.13L71.49 45.13L71.49 39.37L65.73 39.37L65.73 45.13M37.00 45.20L42.76 45.20L42.76 39.44L37.00 39.44L37.00 45.20M58.60 38.00L64.36 38.00L64.36 32.24L58.60 32.24L58.60 38.00M44.20 38.00L49.96 38.00L49.96 32.24L44.20 32.24L44.20 38.00M65.73 37.93L71.49 37.93L71.49 32.17L65.73 32.17L65.73 37.93M37.00 38.00L42.76 38.00L42.76 32.24L37.00 32.24L37.00 38.00M58.60 30.80L64.36 30.80L64.36 25.04L58.60 25.04L58.60 30.80M44.20 30.80L49.96 30.80L49.96 25.04L44.20 25.04L44.20 30.80M65.73 30.73L71.49 30.73L71.49 24.97L65.73 24.97L65.73 30.73M37.00 30.80L42.76 30.80L42.76 25.04L37.00 25.04L37.00 30.80M58.60 23.60L64.36 23.60L64.36 17.84L58.60 17.84L58.60 23.60M44.20 23.60L49.96 23.60L49.96 17.84L44.20 17.84L44.20 23.60M65.73 23.53L71.49 23.53L71.49 17.77L65.73 17.77L65.73 23.53M37.00 23.60L42.76 23.60L42.76 17.84L37.00 17.84L37.00 23.60M51.33 23.60L57.09 23.60L57.09 17.84L51.33 17.84L51.33 23.60M58.60 59.60L64.36 59.60L64.36 53.84L58.60 53.84L58.60 59.60M44.20 59.60L49.96 59.60L49.96 53.84L44.20 53.84L44.20 59.60M65.73 59.53L71.49 59.53L71.49 53.77L65.73 53.77L65.73 59.53M37.00 59.60L42.76 59.60L42.76 53.84L37.00 53.84L37.00 59.60M51.33 59.60L57.09 59.60L57.09 53.84L51.33 53.84L51.33 59.60ZM101.73 52.40L107.49 52.40L107.49 46.64L101.73 46.64L101.73 52.40M87.33 52.40L93.09 52.40L93.09 46.64L87.33 46.64L87.33 52.40M108.86 52.33L114.62 52.33L114.62 46.57L108.86 46.57L108.86 52.33M80.13 52.40L85.89 52.40L85.89 46.64L80.13 46.64L80.13 52.40M101.73 45.20L107.49 45.20L107.49 39.44L101.73 39.44L101.73 45.20M87.33 45.20L93.09 45.20L93.09 39.44L87.33 39.44L87.33 45.20M108.86 45.13L114.62 45.13L114.62 39.37L108.86 39.37L108.86 45.13M80.13 45.20L85.89 45.20L85.89 39.44L80.13 39.44L80.13 45.20M101.73 38.00L107.49 38.00L107.49 32.24L101.73 32.24L101.73 38.00M87.33 38.00L93.09 38.00L93.09 32.24L87.33 32.24L87.33 38.00M108.86 37.93L114.62 37.93L114.62 32.17L108.86 32.17L108.86 37.93M80.13 38.00L85.89 38.00L85.89 32.24L80.13 32.24L80.13 38.00M101.73 30.80L107.49 30.80L107.49 25.04L101.73 25.04L101.73 30.80M87.33 30.80L93.09 30.80L93.09 25.04L87.33 25.04L87.33 30.80M108.86 30.73L114.62 30.73L114.62 24.97L108.86 24.97L108.86 30.73M80.13 30.80L85.89 30.80L85.89 25.04L80.13 25.04L80.13 30.80M101.73 23.60L107.49 23.60L107.49 17.84L101.73 17.84L101.73 23.60M87.33 23.60L93.09 23.60L93.09 17.84L87.33 17.84L87.33 23.60M108.86 23.53L114.62 23.53L114.62 17.77L108.86 17.77L108.86 23.53M80.13 23.60L85.89 23.60L85.89 17.84L80.13 17.84L80.13 23.60M94.46 23.60L100.22 23.60L100.22 17.84L94.46 17.84L94.46 23.60M101.73 59.60L107.49 59.60L107.49 53.84L101.73 53.84L101.73 59.60M87.33 59.60L93.09 59.60L93.09 53.84L87.33 53.84L87.33 59.60M108.86 59.53L114.62 59.53L114.62 53.77L108.86 53.77L108.86 59.53M80.13 59.60L85.89 59.60L85.89 53.84L80.13 53.84L80.13 59.60M94.46 59.60L100.22 59.60L100.22 53.84L94.46 53.84L94.46 59.60M101.73 66.80L107.49 66.80L107.49 61.04L101.73 61.04L101.73 66.80M108.86 66.73L114.62 66.73L114.62 60.97L108.86 60.97L108.86 66.73M101.73 74.00L107.49 74.00L107.49 68.24L101.73 68.24L101.73 74.00M87.33 74.00L93.09 74.00L93.09 68.24L87.33 68.24L87.33 74.00M108.86 73.93L114.62 73.93L114.62 68.17L108.86 68.17L108.86 73.93M80.13 74.00L85.89 74.00L85.89 68.24L80.13 68.24L80.13 74.00M101.73 81.20L107.49 81.20L107.49 75.44L101.73 75.44L101.73 81.20M87.33 81.20L93.09 81.20L93.09 75.44L87.33 75.44L87.33 81.20M108.86 81.13L114.62 81.13L114.62 75.37L108.86 75.37L108.86 81.13M80.13 81.20L85.89 81.20L85.89 75.44L80.13 75.44L80.13 81.20M94.46 81.20L100.22 81.20L100.22 75.44L94.46 75.44L94.46 81.20ZM144.86 52.40L150.62 52.40L150.62 46.64L144.86 46.64L144.86 52.40M130.46 52.40L136.22 52.40L136.22 46.64L130.46 46.64L130.46 52.40M151.98 52.33L157.74 52.33L157.74 46.57L151.98 46.57L151.98 52.33M123.26 52.40L129.02 52.40L129.02 46.64L123.26 46.64L123.26 52.40M144.86 45.20L150.62 45.20L150.62 39.44L144.86 39.44L144.86 45.20M130.46 45.20L136.22 45.20L136.22 39.44L130.46 39.44L130.46 45.20M151.98 45.13L157.74 45.13L157.74 39.37L151.98 39.37L151.98 45.13M123.26 45.20L129.02 45.20L129.02 39.44L123.26 39.44L123.26 45.20M144.86 38.00L150.62 38.00L150.62 32.24L144.86 32.24L144.86 38.00M130.46 38.00L136.22 38.00L136.22 32.24L130.46 32.24L130.46 38.00M151.98 37.93L157.74 37.93L157.74 32.17L151.98 32.17L151.98 37.93M123.26 38.00L129.02 38.00L129.02 32.24L123.26 32.24L123.26 38.00M144.86 30.80L150.62 30.80L150.62 25.04L144.86 25.04L144.86 30.80M130.46 30.80L136.22 30.80L136.22 25.04L130.46 25.04L130.46 30.80M151.98 30.73L157.74 30.73L157.74 24.97L151.98 24.97L151.98 30.73M123.26 30.80L129.02 30.80L129.02 25.04L123.26 25.04L123.26 30.80M144.86 23.60L150.62 23.60L150.62 17.84L144.86 17.84L144.86 23.60M130.46 23.60L136.22 23.60L136.22 17.84L130.46 17.84L130.46 23.60M151.98 23.53L157.74 23.53L157.74 17.77L151.98 17.77L151.98 23.53M123.26 23.60L129.02 23.60L129.02 17.84L123.26 17.84L123.26 23.60M137.58 23.60L143.34 23.60L143.34 17.84L137.58 17.84L137.58 23.60M144.86 59.60L150.62 59.60L150.62 53.84L144.86 53.84L144.86 59.60M130.46 59.60L136.22 59.60L136.22 53.84L130.46 53.84L130.46 59.60M151.98 59.53L157.74 59.53L157.74 53.77L151.98 53.77L151.98 59.53M123.26 59.60L129.02 59.60L129.02 53.84L123.26 53.84L123.26 59.60M137.58 59.60L143.34 59.60L143.34 53.84L137.58 53.84L137.58 59.60ZM173.58 52.40L179.34 52.40L179.34 46.64L173.58 46.64L173.58 52.40M166.38 52.40L172.14 52.40L172.14 46.64L166.38 46.64L166.38 52.40M173.58 59.60L179.34 59.60L179.34 53.84L173.58 53.84L173.58 59.60M166.38 59.60L172.14 59.60L172.14 53.84L166.38 53.84L166.38 59.60ZM195.11 38.00L200.87 38.00L200.87 32.24L195.11 32.24L195.11 38.00M187.91 38.00L193.67 38.00L193.67 32.24L187.91 32.24L187.91 38.00M202.24 38.00L208.00 38.00L208.00 32.24L202.24 32.24L202.24 38.00M195.11 30.80L200.87 30.80L200.87 25.04L195.11 25.04L195.11 30.80M187.91 30.80L193.67 30.80L193.67 25.04L187.91 25.04L187.91 30.80M195.11 23.60L200.87 23.60L200.87 17.84L195.11 17.84L195.11 23.60M187.91 23.60L193.67 23.60L193.67 17.84L187.91 17.84L187.91 23.60M202.24 23.60L208.00 23.60L208.00 17.84L202.24 17.84L202.24 23.60M195.11 59.60L200.87 59.60L200.87 53.84L195.11 53.84L195.11 59.60M187.91 59.60L193.67 59.60L193.67 53.84L187.91 53.84L187.91 59.60M202.24 59.60L208.00 59.60L208.00 53.84L202.24 53.84L202.24 59.60M209.44 52.33L215.20 52.33L215.20 46.57L209.44 46.57L209.44 52.33M216.71 52.33L222.47 52.33L222.47 46.57L216.71 46.57L216.71 52.33M209.44 45.13L215.20 45.13L215.20 39.37L209.44 39.37L209.44 45.13M216.71 45.13L222.47 45.13L222.47 39.37L216.71 39.37L216.71 45.13M209.44 37.93L215.20 37.93L215.20 32.17L209.44 32.17L209.44 37.93M216.71 37.93L222.47 37.93L222.47 32.17L216.71 32.17L216.71 37.93M209.44 23.53L215.20 23.53L215.20 17.77L209.44 17.77L209.44 23.53M216.71 23.53L222.47 23.53L222.47 17.77L216.71 17.77L216.71 23.53M209.44 59.53L215.20 59.53L215.20 53.77L209.44 53.77L209.44 59.53M216.71 59.53L222.47 59.53L222.47 53.77L216.71 53.77L216.71 59.53ZM252.64 52.40L258.40 52.40L258.40 46.64L252.64 46.64L252.64 52.40M259.77 52.33L265.53 52.33L265.53 46.57L259.77 46.57L259.77 52.33M245.37 52.40L251.13 52.40L251.13 46.64L245.37 46.64L245.37 52.40M238.24 45.20L244.00 45.20L244.00 39.44L238.24 39.44L238.24 45.20M259.77 45.13L265.53 45.13L265.53 39.37L259.77 39.37L259.77 45.13M267.04 45.13L272.80 45.13L272.80 39.37L267.04 39.37L267.04 45.13M245.37 45.20L251.13 45.20L251.13 39.44L245.37 39.44L245.37 45.20M238.24 38.00L244.00 38.00L244.00 32.24L238.24 32.24L238.24 38.00M259.77 37.93L265.53 37.93L265.53 32.17L259.77 32.17L259.77 37.93M267.04 37.93L272.80 37.93L272.80 32.17L267.04 32.17L267.04 37.93M245.37 38.00L251.13 38.00L251.13 32.24L245.37 32.24L245.37 38.00M238.24 30.80L244.00 30.80L244.00 25.04L238.24 25.04L238.24 30.80M267.04 30.73L272.80 30.73L272.80 24.97L267.04 24.97L267.04 30.73M274.31 30.80L280.07 30.80L280.07 25.04L274.31 25.04L274.31 30.80M231.04 30.80L236.80 30.80L236.80 25.04L231.04 25.04L231.04 30.80M238.24 23.60L244.00 23.60L244.00 17.84L238.24 17.84L238.24 23.60M267.04 23.53L272.80 23.53L272.80 17.77L267.04 17.77L267.04 23.53M274.31 23.60L280.07 23.60L280.07 17.84L274.31 17.84L274.31 23.60M231.04 23.60L236.80 23.60L236.80 17.84L231.04 17.84L231.04 23.60M252.64 59.60L258.40 59.60L258.40 53.84L252.64 53.84L252.64 59.60M259.77 59.53L265.53 59.53L265.53 53.77L259.77 53.77L259.77 59.53M245.37 59.60L251.13 59.60L251.13 53.84L245.37 53.84L245.37 59.60ZM310.31 52.40L316.07 52.40L316.07 46.64L310.31 46.64L310.31 52.40M295.91 52.40L301.67 52.40L301.67 46.64L295.91 46.64L295.91 52.40M317.44 52.33L323.20 52.33L323.20 46.57L317.44 46.57L317.44 52.33M288.71 52.40L294.47 52.40L294.47 46.64L288.71 46.64L288.71 52.40M310.31 45.20L316.07 45.20L316.07 39.44L310.31 39.44L310.31 45.20M295.91 45.20L301.67 45.20L301.67 39.44L295.91 39.44L295.91 45.20M317.44 45.13L323.20 45.13L323.20 39.37L317.44 39.37L317.44 45.13M288.71 45.20L294.47 45.20L294.47 39.44L288.71 39.44L288.71 45.20M310.31 38.00L316.07 38.00L316.07 32.24L310.31 32.24L310.31 38.00M295.91 38.00L301.67 38.00L301.67 32.24L295.91 32.24L295.91 38.00M317.44 37.93L323.20 37.93L323.20 32.17L317.44 32.17L317.44 37.93M288.71 38.00L294.47 38.00L294.47 32.24L288.71 32.24L288.71 38.00M310.31 30.80L316.07 30.80L316.07 25.04L310.31 25.04L310.31 30.80M295.91 30.80L301.67 30.80L301.67 25.04L295.91 25.04L295.91 30.80M317.44 30.73L323.20 30.73L323.20 24.97L317.44 24.97L317.44 30.73M288.71 30.80L294.47 30.80L294.47 25.04L288.71 25.04L288.71 30.80M310.31 23.60L316.07 23.60L316.07 17.84L310.31 17.84L310.31 23.60M295.91 23.60L301.67 23.60L301.67 17.84L295.91 17.84L295.91 23.60M317.44 23.53L323.20 23.53L323.20 17.77L317.44 17.77L317.44 23.53M288.71 23.60L294.47 23.60L294.47 17.84L288.71 17.84L288.71 23.60M303.04 23.60L308.80 23.60L308.80 17.84L303.04 17.84L303.04 23.60M310.31 59.60L316.07 59.60L316.07 53.84L310.31 53.84L310.31 59.60M295.91 59.60L301.67 59.60L301.67 53.84L295.91 53.84L295.91 59.60M317.44 59.53L323.20 59.53L323.20 53.77L317.44 53.77L317.44 59.53M288.71 59.60L294.47 59.60L294.47 53.84L288.71 53.84L288.71 59.60M303.04 59.60L308.80 59.60L308.80 53.84L303.04 53.84L303.04 59.60M310.31 66.80L316.07 66.80L316.07 61.04L310.31 61.04L310.31 66.80M317.44 66.73L323.20 66.73L323.20 60.97L317.44 60.97L317.44 66.73M310.31 74.00L316.07 74.00L316.07 68.24L310.31 68.24L310.31 74.00M295.91 74.00L301.67 74.00L301.67 68.24L295.91 68.24L295.91 74.00M317.44 73.93L323.20 73.93L323.20 68.17L317.44 68.17L317.44 73.93M288.71 74.00L294.47 74.00L294.47 68.24L288.71 68.24L288.71 74.00M310.31 81.20L316.07 81.20L316.07 75.44L310.31 75.44L310.31 81.20M295.91 81.20L301.67 81.20L301.67 75.44L295.91 75.44L295.91 81.20M317.44 81.13L323.20 81.13L323.20 75.37L317.44 75.37L317.44 81.13M288.71 81.20L294.47 81.20L294.47 75.44L288.71 75.44L288.71 81.20M303.04 81.20L308.80 81.20L308.80 75.44L303.04 75.44L303.04 81.20Z"></path></svg>