<svg version="1.1" xmlns="http://www.w3.org/2000/svg" xmlns:xlink="http://www.w3.org/1999/xlink" role="img" width="380" height="79" viewbox="0 0 380 79"><title>Blocked</title><path fill="#fc174f" d="M23.50 56L23.50 47L28 47L28 56L23.50 56M23.50 33.50L23.50 24.50L28 24.50L28 33.50L23.50 33.50M46 65L46 42.50L37 42.50L37 38L46 38L46 15.50L5.50 15.50L5.50 65L46 65M1 69.50L1 11L50.50 11L50.50 69.50L1 69.50ZM100 65L100 51.50L77.50 51.50L77.50 15.50L59.50 15.50L59.50 65L100 65M55 69.50L55 11L82 11L82 47L104.50 47L104.50 69.50L55 69.50ZM131.50 51.50L131.50 29L136 29L136 51.50L131.50 51.50M154 65L154 15.50L113.50 15.50L113.50 65L154 65M109 69.50L109 11L158.50 11L158.50 69.50L109 69.50ZM208 65L208 51.50L185.50 51.50L185.50 29L208 29L208 15.50L167.50 15.50L167.50 65L208 65M163 69.50L163 11L212.50 11L212.50 33.50L190 33.50L190 47L212.50 47L212.50 69.50L163 69.50ZM262 65L262 42.50L253 42.50L253 38L262 38L262 15.50L244 15.50L244 29L239.50 29L239.50 15.50L221.50 15.50L221.50 65L239.50 65L239.50 51.50L244 51.50L244 65L262 65M217 69.50L217 11L266.50 11L266.50 69.50L217 69.50ZM316 65L316 51.50L298 51.50L298 47L316 47L316 33.50L298 33.50L298 29L316 29L316 15.50L275.50 15.50L275.50 65L316 65M271 69.50L271 11L320.50 11L320.50 69.50L271 69.50ZM365.50 65L365.50 60.50L370 60.50L370 65L365.50 65M347.50 51.50L347.50 29L352 29L352 51.50L347.50 51.50M370 60.50L370 20L374.50 20L374.50 60.50L370 60.50M365.50 20L365.50 15.50L370 15.50L370 20L365.50 20M325 69.50L325 11L365.50 11L365.50 15.50L329.50 15.50L329.50 65L365.50 65L365.50 69.50L325 69.50Z"></path></svg>