<svg version="1.1" xmlns="http://www.w3.org/2000/svg" xmlns:xlink="http://www.w3.org/1999/xlink" role="img" width="426" height="74" viewbox="0 0 426 74"><title>divided</title><path fill="#6af72e" d="M57.02 59.60L5.18 59.60L5.18 15.10L27.78 15.10L27.78 7.69L57.02 7.69L57.02 59.60M50.39 52.90L50.39 14.31L34.41 14.31L34.41 21.80L11.80 21.80L11.80 52.90L50.39 52.90M34.41 44.41L27.78 44.41L27.78 30.30L34.41 30.30L34.41 44.41Z"></path><path fill="#c6e03c" d="M117.57 59.60L65.73 59.60L65.73 37.78L73.14 37.78L73.14 29.43L65.73 29.43L65.73 7.69L117.57 7.69L117.57 29.43L110.15 29.43L110.15 37.78L117.57 37.78L117.57 59.60M110.94 52.90L110.94 44.41L103.46 44.41L103.46 22.81L110.94 22.81L110.94 14.31L72.35 14.31L72.35 22.81L79.84 22.81L79.84 44.41L72.35 44.41L72.35 52.90L110.94 52.90Z"></path><path fill="#fc428f" d="M178.12 52.04L170.70 52.04L170.70 59.60L133.70 59.60L133.70 52.04L126.28 52.04L126.28 7.69L178.12 7.69L178.12 52.04M171.50 45.42L171.50 14.31L155.51 14.31L155.51 44.41L148.89 44.41L148.89 14.31L132.90 14.31L132.90 45.42L140.39 45.42L140.39 52.90L164.01 52.90L164.01 45.42L171.50 45.42Z"></path><path fill="#cea2fd" d="M238.67 59.60L186.83 59.60L186.83 37.78L194.25 37.78L194.25 29.43L186.83 29.43L186.83 7.69L238.67 7.69L238.67 29.43L231.26 29.43L231.26 37.78L238.67 37.78L238.67 59.60M232.05 52.90L232.05 44.41L224.56 44.41L224.56 22.81L232.05 22.81L232.05 14.31L193.46 14.31L193.46 22.81L200.94 22.81L200.94 44.41L193.46 44.41L193.46 52.90L232.05 52.90Z"></path><path fill="#fb3f24" d="M299.22 59.60L247.38 59.60L247.38 15.10L269.99 15.10L269.99 7.69L299.22 7.69L299.22 59.60M292.60 52.90L292.60 14.31L276.62 14.31L276.62 21.80L254.01 21.80L254.01 52.90L292.60 52.90M276.62 44.41L269.99 44.41L269.99 30.30L276.62 30.30L276.62 44.41Z"></path><path fill="#3cc8f6" d="M359.78 59.60L307.94 59.60L307.94 7.69L359.78 7.69L359.78 59.60M353.15 52.90L353.15 44.41L330.54 44.41L330.54 37.78L353.15 37.78L353.15 14.31L314.56 14.31L314.56 52.90L353.15 52.90M337.17 29.43L330.54 29.43L330.54 22.81L337.17 22.81L337.17 29.43Z"></path><path fill="#ff3e74" d="M420.33 59.60L368.49 59.60L368.49 15.10L391.10 15.10L391.10 7.69L420.33 7.69L420.33 59.60M413.70 52.90L413.70 14.31L397.72 14.31L397.72 21.80L375.11 21.80L375.11 52.90L413.70 52.90M397.72 44.41L391.10 44.41L391.10 30.30L397.72 30.30L397.72 44.41Z"></path></svg>