<svg version="1.1" xmlns="http://www.w3.org/2000/svg" xmlns:xlink="http://www.w3.org/1999/xlink" role="img" width="264" height="84" viewbox="0 0 264 84"><title>Square</title><path fill="#fc438e" stroke="#40c6f8" stroke-width="2" d="M9.20 54.40L14.96 54.40L14.96 48.64L9.20 48.64L9.20 54.40M30.73 54.33L36.49 54.33L36.49 48.57L30.73 48.57L30.73 54.33M38.00 54.33L43.76 54.33L43.76 48.57L38.00 48.57L38.00 54.33M2 54.40L7.76 54.40L7.76 48.64L2 48.64L2 54.40M9.20 47.20L14.96 47.20L14.96 41.44L9.20 41.44L9.20 47.20M30.73 47.13L36.49 47.13L36.49 41.37L30.73 41.37L30.73 47.13M38.00 47.13L43.76 47.13L43.76 41.37L38.00 41.37L38.00 47.13M2 47.20L7.76 47.20L7.76 41.44L2 41.44L2 47.20M30.73 39.93L36.49 39.93L36.49 34.17L30.73 34.17L30.73 39.93M38.00 39.93L43.76 39.93L43.76 34.17L38.00 34.17L38.00 39.93M30.73 32.73L36.49 32.73L36.49 26.97L30.73 26.97L30.73 32.73M38.00 32.73L43.76 32.73L43.76 26.97L38.00 26.97L38.00 32.73M23.60 25.60L29.36 25.60L29.36 19.84L23.60 19.84L23.60 25.60M9.20 25.60L14.96 25.60L14.96 19.84L9.20 19.84L9.20 25.60M30.73 25.53L36.49 25.53L36.49 19.77L30.73 19.77L30.73 25.53M38.00 25.53L43.76 25.53L43.76 19.77L38.00 19.77L38.00 25.53M16.33 25.60L22.09 25.60L22.09 19.84L16.33 19.84L16.33 25.60M9.20 18.40L14.96 18.40L14.96 12.64L9.20 12.64L9.20 18.40M2 18.40L7.76 18.40L7.76 12.64L2 12.64L2 18.40M23.60 11.20L29.36 11.20L29.36 5.44L23.60 5.44L23.60 11.20M9.20 11.20L14.96 11.20L14.96 5.44L9.20 5.44L9.20 11.20M30.73 11.13L36.49 11.13L36.49 5.37L30.73 5.37L30.73 11.13M38.00 11.13L43.76 11.13L43.76 5.37L38.00 5.37L38.00 11.13M16.33 11.20L22.09 11.20L22.09 5.44L16.33 5.44L16.33 11.20M23.60 61.60L29.36 61.60L29.36 55.84L23.60 55.84L23.60 61.60M9.20 61.60L14.96 61.60L14.96 55.84L9.20 55.84L9.20 61.60M30.73 61.53L36.49 61.53L36.49 55.77L30.73 55.77L30.73 61.53M38.00 61.53L43.76 61.53L43.76 55.77L38.00 55.77L38.00 61.53M16.33 61.60L22.09 61.60L22.09 55.84L16.33 55.84L16.33 61.60M2 11.20L7.76 11.20L7.76 5.44L2 5.44L2 11.20M2 25.60L7.76 25.60L7.76 19.84L2 19.84L2 25.60M2 61.60L7.76 61.60L7.76 55.84L2 55.84L2 61.60ZM74 54.40L79.76 54.40L79.76 48.64L74 48.64L74 54.40M59.60 54.40L65.36 54.40L65.36 48.64L59.60 48.64L59.60 54.40M81.13 54.33L86.89 54.33L86.89 48.57L81.13 48.57L81.13 54.33M52.40 54.40L58.16 54.40L58.16 48.64L52.40 48.64L52.40 54.40M74 47.20L79.76 47.20L79.76 41.44L74 41.44L74 47.20M59.60 47.20L65.36 47.20L65.36 41.44L59.60 41.44L59.60 47.20M81.13 47.13L86.89 47.13L86.89 41.37L81.13 41.37L81.13 47.13M52.40 47.20L58.16 47.20L58.16 41.44L52.40 41.44L52.40 47.20M74 40.00L79.76 40.00L79.76 34.24L74 34.24L74 40.00M59.60 40.00L65.36 40.00L65.36 34.24L59.60 34.24L59.60 40.00M81.13 39.93L86.89 39.93L86.89 34.17L81.13 34.17L81.13 39.93M52.40 40.00L58.16 40.00L58.16 34.24L52.40 34.24L52.40 40.00M74 32.80L79.76 32.80L79.76 27.04L74 27.04L74 32.80M59.60 32.80L65.36 32.80L65.36 27.04L59.60 27.04L59.60 32.80M81.13 32.73L86.89 32.73L86.89 26.97L81.13 26.97L81.13 32.73M52.40 32.80L58.16 32.80L58.16 27.04L52.40 27.04L52.40 32.80M74 25.60L79.76 25.60L79.76 19.84L74 19.84L74 25.60M59.60 25.60L65.36 25.60L65.36 19.84L59.60 19.84L59.60 25.60M81.13 25.53L86.89 25.53L86.89 19.77L81.13 19.77L81.13 25.53M52.40 25.60L58.16 25.60L58.16 19.84L52.40 19.84L52.40 25.60M66.73 25.60L72.49 25.60L72.49 19.84L66.73 19.84L66.73 25.60M74 61.60L79.76 61.60L79.76 55.84L74 55.84L74 61.60M59.60 61.60L65.36 61.60L65.36 55.84L59.60 55.84L59.60 61.60M81.13 61.53L86.89 61.53L86.89 55.77L81.13 55.77L81.13 61.53M52.40 61.60L58.16 61.60L58.16 55.84L52.40 55.84L52.40 61.60M66.73 61.60L72.49 61.60L72.49 55.84L66.73 55.84L66.73 61.60M74 68.80L79.76 68.80L79.76 63.04L74 63.04L74 68.80M81.13 68.73L86.89 68.73L86.89 62.97L81.13 62.97L81.13 68.73M74 76.00L79.76 76.00L79.76 70.24L74 70.24L74 76.00M81.13 75.93L86.89 75.93L86.89 70.17L81.13 70.17L81.13 75.93M74 83.20L79.76 83.20L79.76 77.44L74 77.44L74 83.20M81.13 83.13L86.89 83.13L86.89 77.37L81.13 77.37L81.13 83.13ZM117.13 54.40L122.89 54.40L122.89 48.64L117.13 48.64L117.13 54.40M102.73 54.40L108.49 54.40L108.49 48.64L102.73 48.64L102.73 54.40M124.26 54.33L130.02 54.33L130.02 48.57L124.26 48.57L124.26 54.33M95.53 54.40L101.29 54.40L101.29 48.64L95.53 48.64L95.53 54.40M117.13 47.20L122.89 47.20L122.89 41.44L117.13 41.44L117.13 47.20M102.73 47.20L108.49 47.20L108.49 41.44L102.73 41.44L102.73 47.20M124.26 47.13L130.02 47.13L130.02 41.37L124.26 41.37L124.26 47.13M95.53 47.20L101.29 47.20L101.29 41.44L95.53 41.44L95.53 47.20M117.13 40.00L122.89 40.00L122.89 34.24L117.13 34.24L117.13 40.00M102.73 40.00L108.49 40.00L108.49 34.24L102.73 34.24L102.73 40.00M124.26 39.93L130.02 39.93L130.02 34.17L124.26 34.17L124.26 39.93M95.53 40.00L101.29 40.00L101.29 34.24L95.53 34.24L95.53 40.00M117.13 32.80L122.89 32.80L122.89 27.04L117.13 27.04L117.13 32.80M102.73 32.80L108.49 32.80L108.49 27.04L102.73 27.04L102.73 32.80M124.26 32.73L130.02 32.73L130.02 26.97L124.26 26.97L124.26 32.73M95.53 32.80L101.29 32.80L101.29 27.04L95.53 27.04L95.53 32.80M117.13 25.60L122.89 25.60L122.89 19.84L117.13 19.84L117.13 25.60M102.73 25.60L108.49 25.60L108.49 19.84L102.73 19.84L102.73 25.60M124.26 25.53L130.02 25.53L130.02 19.77L124.26 19.77L124.26 25.53M95.53 25.60L101.29 25.60L101.29 19.84L95.53 19.84L95.53 25.60M117.13 61.60L122.89 61.60L122.89 55.84L117.13 55.84L117.13 61.60M102.73 61.60L108.49 61.60L108.49 55.84L102.73 55.84L102.73 61.60M124.26 61.53L130.02 61.53L130.02 55.77L124.26 55.77L124.26 61.53M95.53 61.60L101.29 61.60L101.29 55.84L95.53 55.84L95.53 61.60M109.86 61.60L115.62 61.60L115.62 55.84L109.86 55.84L109.86 61.60ZM160.26 54.40L166.02 54.40L166.02 48.64L160.26 48.64L160.26 54.40M145.86 54.40L151.62 54.40L151.62 48.64L145.86 48.64L145.86 54.40M167.38 54.33L173.14 54.33L173.14 48.57L167.38 48.57L167.38 54.33M138.66 54.40L144.42 54.40L144.42 48.64L138.66 48.64L138.66 54.40M160.26 47.20L166.02 47.20L166.02 41.44L160.26 41.44L160.26 47.20M145.86 47.20L151.62 47.20L151.62 41.44L145.86 41.44L145.86 47.20M167.38 47.13L173.14 47.13L173.14 41.37L167.38 41.37L167.38 47.13M138.66 47.20L144.42 47.20L144.42 41.44L138.66 41.44L138.66 47.20M160.26 40.00L166.02 40.00L166.02 34.24L160.26 34.24L160.26 40.00M145.86 40.00L151.62 40.00L151.62 34.24L145.86 34.24L145.86 40.00M167.38 39.93L173.14 39.93L173.14 34.17L167.38 34.17L167.38 39.93M138.66 40.00L144.42 40.00L144.42 34.24L138.66 34.24L138.66 40.00M152.98 40.00L158.74 40.00L158.74 34.24L152.98 34.24L152.98 40.00M160.26 32.80L166.02 32.80L166.02 27.04L160.26 27.04L160.26 32.80M167.38 32.73L173.14 32.73L173.14 26.97L167.38 26.97L167.38 32.73M160.26 25.60L166.02 25.60L166.02 19.84L160.26 19.84L160.26 25.60M145.86 25.60L151.62 25.60L151.62 19.84L145.86 19.84L145.86 25.60M167.38 25.53L173.14 25.53L173.14 19.77L167.38 19.77L167.38 25.53M138.66 25.60L144.42 25.60L144.42 19.84L138.66 19.84L138.66 25.60M152.98 25.60L158.74 25.60L158.74 19.84L152.98 19.84L152.98 25.60M160.26 61.60L166.02 61.60L166.02 55.84L160.26 55.84L160.26 61.60M145.86 61.60L151.62 61.60L151.62 55.84L145.86 55.84L145.86 61.60M167.38 61.53L173.14 61.53L173.14 55.77L167.38 55.77L167.38 61.53M138.66 61.60L144.42 61.60L144.42 55.84L138.66 55.84L138.66 61.60M152.98 61.60L158.74 61.60L158.74 55.84L152.98 55.84L152.98 61.60ZM189.13 54.40L194.89 54.40L194.89 48.64L189.13 48.64L189.13 54.40M181.93 54.40L187.69 54.40L187.69 48.64L181.93 48.64L181.93 54.40M189.13 47.20L194.89 47.20L194.89 41.44L189.13 41.44L189.13 47.20M181.93 47.20L187.69 47.20L187.69 41.44L181.93 41.44L181.93 47.20M189.13 40.00L194.89 40.00L194.89 34.24L189.13 34.24L189.13 40.00M181.93 40.00L187.69 40.00L187.69 34.24L181.93 34.24L181.93 40.00M196.62 25.53L202.38 25.53L202.38 19.77L196.62 19.77L196.62 25.53M189.13 32.80L194.89 32.80L194.89 27.04L189.13 27.04L189.13 32.80M181.93 32.80L187.69 32.80L187.69 27.04L181.93 27.04L181.93 32.80M203.53 25.60L209.29 25.60L209.29 19.84L203.53 19.84L203.53 25.60M189.13 25.60L194.89 25.60L194.89 19.84L189.13 19.84L189.13 25.60M189.13 61.60L194.89 61.60L194.89 55.84L189.13 55.84L189.13 61.60M181.93 61.60L187.69 61.60L187.69 55.84L181.93 55.84L181.93 61.60ZM225.13 54.40L230.89 54.40L230.89 48.64L225.13 48.64L225.13 54.40M217.93 54.40L223.69 54.40L223.69 48.64L217.93 48.64L217.93 54.40M225.13 47.20L230.89 47.20L230.89 41.44L225.13 41.44L225.13 47.20M217.93 47.20L223.69 47.20L223.69 41.44L217.93 41.44L217.93 47.20M239.53 40.00L245.29 40.00L245.29 34.24L239.53 34.24L239.53 40.00M225.13 40.00L230.89 40.00L230.89 34.24L225.13 34.24L225.13 40.00M246.66 39.93L252.42 39.93L252.42 34.17L246.66 34.17L246.66 39.93M217.93 40.00L223.69 40.00L223.69 34.24L217.93 34.24L217.93 40.00M232.26 40.00L238.02 40.00L238.02 34.24L232.26 34.24L232.26 40.00M239.53 32.80L245.29 32.80L245.29 27.04L239.53 27.04L239.53 32.80M225.13 32.80L230.89 32.80L230.89 27.04L225.13 27.04L225.13 32.80M246.66 32.73L252.42 32.73L252.42 26.97L246.66 26.97L246.66 32.73M217.93 32.80L223.69 32.80L223.69 27.04L217.93 27.04L217.93 32.80M239.53 25.60L245.29 25.60L245.29 19.84L239.53 19.84L239.53 25.60M225.13 25.60L230.89 25.60L230.89 19.84L225.13 19.84L225.13 25.60M246.66 25.53L252.42 25.53L252.42 19.77L246.66 19.77L246.66 25.53M217.93 25.60L223.69 25.60L223.69 19.84L217.93 19.84L217.93 25.60M232.26 25.60L238.02 25.60L238.02 19.84L232.26 19.84L232.26 25.60M239.53 61.60L245.29 61.60L245.29 55.84L239.53 55.84L239.53 61.60M225.13 61.60L230.89 61.60L230.89 55.84L225.13 55.84L225.13 61.60M246.66 61.53L252.42 61.53L252.42 55.77L246.66 55.77L246.66 61.53M217.93 61.60L223.69 61.60L223.69 55.84L217.93 55.84L217.93 61.60M232.26 61.60L238.02 61.60L238.02 55.84L232.26 55.84L232.26 61.60Z"></path></svg>