<svg version="1.1" xmlns="http://www.w3.org/2000/svg" xmlns:xlink="http://www.w3.org/1999/xlink" role="img" width="262" height="82" viewbox="0 0 262 82"><title>Square</title><path fill="#cfa3fd" stroke="#fd742d" d="M8.20 52.40L13.96 52.40L13.96 46.64L8.20 46.64L8.20 52.40M29.73 52.33L35.49 52.33L35.49 46.57L29.73 46.57L29.73 52.33M37.00 52.33L42.76 52.33L42.76 46.57L37.00 46.57L37.00 52.33M1 52.40L6.76 52.40L6.76 46.64L1 46.64L1 52.40M8.20 45.20L13.96 45.20L13.96 39.44L8.20 39.44L8.20 45.20M29.73 45.13L35.49 45.13L35.49 39.37L29.73 39.37L29.73 45.13M37.00 45.13L42.76 45.13L42.76 39.37L37.00 39.37L37.00 45.13M1 45.20L6.76 45.20L6.76 39.44L1 39.44L1 45.20M29.73 37.93L35.49 37.93L35.49 32.17L29.73 32.17L29.73 37.93M37.00 37.93L42.76 37.93L42.76 32.17L37.00 32.17L37.00 37.93M29.73 30.73L35.49 30.73L35.49 24.97L29.73 24.97L29.73 30.73M37.00 30.73L42.76 30.73L42.76 24.97L37.00 24.97L37.00 30.73M22.60 23.60L28.36 23.60L28.36 17.84L22.60 17.84L22.60 23.60M8.20 23.60L13.96 23.60L13.96 17.84L8.20 17.84L8.20 23.60M29.73 23.53L35.49 23.53L35.49 17.77L29.73 17.77L29.73 23.53M37.00 23.53L42.76 23.53L42.76 17.77L37.00 17.77L37.00 23.53M15.33 23.60L21.09 23.60L21.09 17.84L15.33 17.84L15.33 23.60M8.20 16.40L13.96 16.40L13.96 10.64L8.20 10.64L8.20 16.40M1 16.40L6.76 16.40L6.76 10.64L1 10.64L1 16.40M22.60 9.20L28.36 9.20L28.36 3.44L22.60 3.44L22.60 9.20M8.20 9.20L13.96 9.20L13.96 3.44L8.20 3.44L8.20 9.20M29.73 9.13L35.49 9.13L35.49 3.37L29.73 3.37L29.73 9.13M37.00 9.13L42.76 9.13L42.76 3.37L37.00 3.37L37.00 9.13M15.33 9.20L21.09 9.20L21.09 3.44L15.33 3.44L15.33 9.20M22.60 59.60L28.36 59.60L28.36 53.84L22.60 53.84L22.60 59.60M8.20 59.60L13.96 59.60L13.96 53.84L8.20 53.84L8.20 59.60M29.73 59.53L35.49 59.53L35.49 53.77L29.73 53.77L29.73 59.53M37.00 59.53L42.76 59.53L42.76 53.77L37.00 53.77L37.00 59.53M15.33 59.60L21.09 59.60L21.09 53.84L15.33 53.84L15.33 59.60M1 9.20L6.76 9.20L6.76 3.44L1 3.44L1 9.20M1 23.60L6.76 23.60L6.76 17.84L1 17.84L1 23.60M1 59.60L6.76 59.60L6.76 53.84L1 53.84L1 59.60ZM73 52.40L78.76 52.40L78.76 46.64L73 46.64L73 52.40M58.60 52.40L64.36 52.40L64.36 46.64L58.60 46.64L58.60 52.40M80.13 52.33L85.89 52.33L85.89 46.57L80.13 46.57L80.13 52.33M51.40 52.40L57.16 52.40L57.16 46.64L51.40 46.64L51.40 52.40M73 45.20L78.76 45.20L78.76 39.44L73 39.44L73 45.20M58.60 45.20L64.36 45.20L64.36 39.44L58.60 39.44L58.60 45.20M80.13 45.13L85.89 45.13L85.89 39.37L80.13 39.37L80.13 45.13M51.40 45.20L57.16 45.20L57.16 39.44L51.40 39.44L51.40 45.20M73 38.00L78.76 38.00L78.76 32.24L73 32.24L73 38.00M58.60 38.00L64.36 38.00L64.36 32.24L58.60 32.24L58.60 38.00M80.13 37.93L85.89 37.93L85.89 32.17L80.13 32.17L80.13 37.93M51.40 38.00L57.16 38.00L57.16 32.24L51.40 32.24L51.40 38.00M73 30.80L78.76 30.80L78.76 25.04L73 25.04L73 30.80M58.60 30.80L64.36 30.80L64.36 25.04L58.60 25.04L58.60 30.80M80.13 30.73L85.89 30.73L85.89 24.97L80.13 24.97L80.13 30.73M51.40 30.80L57.16 30.80L57.16 25.04L51.40 25.04L51.40 30.80M73 23.60L78.76 23.60L78.76 17.84L73 17.84L73 23.60M58.60 23.60L64.36 23.60L64.36 17.84L58.60 17.84L58.60 23.60M80.13 23.53L85.89 23.53L85.89 17.77L80.13 17.77L80.13 23.53M51.40 23.60L57.16 23.60L57.16 17.84L51.40 17.84L51.40 23.60M65.73 23.60L71.49 23.60L71.49 17.84L65.73 17.84L65.73 23.60M73 59.60L78.76 59.60L78.76 53.84L73 53.84L73 59.60M58.60 59.60L64.36 59.60L64.36 53.84L58.60 53.84L58.60 59.60M80.13 59.53L85.89 59.53L85.89 53.77L80.13 53.77L80.13 59.53M51.40 59.60L57.16 59.60L57.16 53.84L51.40 53.84L51.40 59.60M65.73 59.60L71.49 59.60L71.49 53.84L65.73 53.84L65.73 59.60M73 66.80L78.76 66.80L78.76 61.04L73 61.04L73 66.80M80.13 66.73L85.89 66.73L85.89 60.97L80.13 60.97L80.13 66.73M73 74.00L78.76 74.00L78.76 68.24L73 68.24L73 74.00M80.13 73.93L85.89 73.93L85.89 68.17L80.13 68.17L80.13 73.93M73 81.20L78.76 81.20L78.76 75.44L73 75.44L73 81.20M80.13 81.13L85.89 81.13L85.89 75.37L80.13 75.37L80.13 81.13ZM116.13 52.40L121.89 52.40L121.89 46.64L116.13 46.64L116.13 52.40M101.73 52.40L107.49 52.40L107.49 46.64L101.73 46.64L101.73 52.40M123.26 52.33L129.02 52.33L129.02 46.57L123.26 46.57L123.26 52.33M94.53 52.40L100.29 52.40L100.29 46.64L94.53 46.64L94.53 52.40M116.13 45.20L121.89 45.20L121.89 39.44L116.13 39.44L116.13 45.20M101.73 45.20L107.49 45.20L107.49 39.44L101.73 39.44L101.73 45.20M123.26 45.13L129.02 45.13L129.02 39.37L123.26 39.37L123.26 45.13M94.53 45.20L100.29 45.20L100.29 39.44L94.53 39.44L94.53 45.20M116.13 38.00L121.89 38.00L121.89 32.24L116.13 32.24L116.13 38.00M101.73 38.00L107.49 38.00L107.49 32.24L101.73 32.24L101.73 38.00M123.26 37.93L129.02 37.93L129.02 32.17L123.26 32.17L123.26 37.93M94.53 38.00L100.29 38.00L100.29 32.24L94.53 32.24L94.53 38.00M116.13 30.80L121.89 30.80L121.89 25.04L116.13 25.04L116.13 30.80M101.73 30.80L107.49 30.80L107.49 25.04L101.73 25.04L101.73 30.80M123.26 30.73L129.02 30.73L129.02 24.97L123.26 24.97L123.26 30.73M94.53 30.80L100.29 30.80L100.29 25.04L94.53 25.04L94.53 30.80M116.13 23.60L121.89 23.60L121.89 17.84L116.13 17.84L116.13 23.60M101.73 23.60L107.49 23.60L107.49 17.84L101.73 17.84L101.73 23.60M123.26 23.53L129.02 23.53L129.02 17.77L123.26 17.77L123.26 23.53M94.53 23.60L100.29 23.60L100.29 17.84L94.53 17.84L94.53 23.60M116.13 59.60L121.89 59.60L121.89 53.84L116.13 53.84L116.13 59.60M101.73 59.60L107.49 59.60L107.49 53.84L101.73 53.84L101.73 59.60M123.26 59.53L129.02 59.53L129.02 53.77L123.26 53.77L123.26 59.53M94.53 59.60L100.29 59.60L100.29 53.84L94.53 53.84L94.53 59.60M108.86 59.60L114.62 59.60L114.62 53.84L108.86 53.84L108.86 59.60ZM159.26 52.40L165.02 52.40L165.02 46.64L159.26 46.64L159.26 52.40M144.86 52.40L150.62 52.40L150.62 46.64L144.86 46.64L144.86 52.40M166.38 52.33L172.14 52.33L172.14 46.57L166.38 46.57L166.38 52.33M137.66 52.40L143.42 52.40L143.42 46.64L137.66 46.64L137.66 52.40M159.26 45.20L165.02 45.20L165.02 39.44L159.26 39.44L159.26 45.20M144.86 45.20L150.62 45.20L150.62 39.44L144.86 39.44L144.86 45.20M166.38 45.13L172.14 45.13L172.14 39.37L166.38 39.37L166.38 45.13M137.66 45.20L143.42 45.20L143.42 39.44L137.66 39.44L137.66 45.20M159.26 38.00L165.02 38.00L165.02 32.24L159.26 32.24L159.26 38.00M144.86 38.00L150.62 38.00L150.62 32.24L144.86 32.24L144.86 38.00M166.38 37.93L172.14 37.93L172.14 32.17L166.38 32.17L166.38 37.93M137.66 38.00L143.42 38.00L143.42 32.24L137.66 32.24L137.66 38.00M151.98 38.00L157.74 38.00L157.74 32.24L151.98 32.24L151.98 38.00M159.26 30.80L165.02 30.80L165.02 25.04L159.26 25.04L159.26 30.80M166.38 30.73L172.14 30.73L172.14 24.97L166.38 24.97L166.38 30.73M159.26 23.60L165.02 23.60L165.02 17.84L159.26 17.84L159.26 23.60M144.86 23.60L150.62 23.60L150.62 17.84L144.86 17.84L144.86 23.60M166.38 23.53L172.14 23.53L172.14 17.77L166.38 17.77L166.38 23.53M137.66 23.60L143.42 23.60L143.42 17.84L137.66 17.84L137.66 23.60M151.98 23.60L157.74 23.60L157.74 17.84L151.98 17.84L151.98 23.60M159.26 59.60L165.02 59.60L165.02 53.84L159.26 53.84L159.26 59.60M144.86 59.60L150.62 59.60L150.62 53.84L144.86 53.84L144.86 59.60M166.38 59.53L172.14 59.53L172.14 53.77L166.38 53.77L166.38 59.53M137.66 59.60L143.42 59.60L143.42 53.84L137.66 53.84L137.66 59.60M151.98 59.60L157.74 59.60L157.74 53.84L151.98 53.84L151.98 59.60ZM188.13 52.40L193.89 52.40L193.89 46.64L188.13 46.64L188.13 52.40M180.93 52.40L186.69 52.40L186.69 46.64L180.93 46.64L180.93 52.40M188.13 45.20L193.89 45.20L193.89 39.44L188.13 39.44L188.13 45.20M180.93 45.20L186.69 45.20L186.69 39.44L180.93 39.44L180.93 45.20M188.13 38.00L193.89 38.00L193.89 32.24L188.13 32.24L188.13 38.00M180.93 38.00L186.69 38.00L186.69 32.24L180.93 32.24L180.93 38.00M195.62 23.53L201.38 23.53L201.38 17.77L195.62 17.77L195.62 23.53M188.13 30.80L193.89 30.80L193.89 25.04L188.13 25.04L188.13 30.80M180.93 30.80L186.69 30.80L186.69 25.04L180.93 25.04L180.93 30.80M202.53 23.60L208.29 23.60L208.29 17.84L202.53 17.84L202.53 23.60M188.13 23.60L193.89 23.60L193.89 17.84L188.13 17.84L188.13 23.60M188.13 59.60L193.89 59.60L193.89 53.84L188.13 53.84L188.13 59.60M180.93 59.60L186.69 59.60L186.69 53.84L180.93 53.84L180.93 59.60ZM224.13 52.40L229.89 52.40L229.89 46.64L224.13 46.64L224.13 52.40M216.93 52.40L222.69 52.40L222.69 46.64L216.93 46.64L216.93 52.40M224.13 45.20L229.89 45.20L229.89 39.44L224.13 39.44L224.13 45.20M216.93 45.20L222.69 45.20L222.69 39.44L216.93 39.44L216.93 45.20M238.53 38.00L244.29 38.00L244.29 32.24L238.53 32.24L238.53 38.00M224.13 38.00L229.89 38.00L229.89 32.24L224.13 32.24L224.13 38.00M245.66 37.93L251.42 37.93L251.42 32.17L245.66 32.17L245.66 37.93M216.93 38.00L222.69 38.00L222.69 32.24L216.93 32.24L216.93 38.00M231.26 38.00L237.02 38.00L237.02 32.24L231.26 32.24L231.26 38.00M238.53 30.80L244.29 30.80L244.29 25.04L238.53 25.04L238.53 30.80M224.13 30.80L229.89 30.80L229.89 25.04L224.13 25.04L224.13 30.80M245.66 30.73L251.42 30.73L251.42 24.97L245.66 24.97L245.66 30.73M216.93 30.80L222.69 30.80L222.69 25.04L216.93 25.04L216.93 30.80M238.53 23.60L244.29 23.60L244.29 17.84L238.53 17.84L238.53 23.60M224.13 23.60L229.89 23.60L229.89 17.84L224.13 17.84L224.13 23.60M245.66 23.53L251.42 23.53L251.42 17.77L245.66 17.77L245.66 23.53M216.93 23.60L222.69 23.60L222.69 17.84L216.93 17.84L216.93 23.60M231.26 23.60L237.02 23.60L237.02 17.84L231.26 17.84L231.26 23.60M238.53 59.60L244.29 59.60L244.29 53.84L238.53 53.84L238.53 59.60M224.13 59.60L229.89 59.60L229.89 53.84L224.13 53.84L224.13 59.60M245.66 59.53L251.42 59.53L251.42 53.77L245.66 53.77L245.66 59.53M216.93 59.60L222.69 59.60L222.69 53.84L216.93 53.84L216.93 59.60M231.26 59.60L237.02 59.60L237.02 53.84L231.26 53.84L231.26 59.60Z"></path></svg>