<svg version="1.1" xmlns="http://www.w3.org/2000/svg" xmlns:xlink="http://www.w3.org/1999/xlink" role="img" width="348" height="108" viewbox="0 0 348 108"><title>Square</title><path fill="#fd742d" d="M10.60 69.20L18.28 69.20L18.28 61.52L10.60 61.52L10.60 69.20M39.30 69.10L46.98 69.10L46.98 61.42L39.30 61.42L39.30 69.10M49 69.10L56.68 69.10L56.68 61.42L49 61.42L49 69.10M1 69.20L8.68 69.20L8.68 61.52L1 61.52L1 69.20M10.60 59.60L18.28 59.60L18.28 51.92L10.60 51.92L10.60 59.60M39.30 59.50L46.98 59.50L46.98 51.82L39.30 51.82L39.30 59.50M49 59.50L56.68 59.50L56.68 51.82L49 51.82L49 59.50M1 59.60L8.68 59.60L8.68 51.92L1 51.92L1 59.60M39.30 49.90L46.98 49.90L46.98 42.22L39.30 42.22L39.30 49.90M49 49.90L56.68 49.90L56.68 42.22L49 42.22L49 49.90M39.30 40.30L46.98 40.30L46.98 32.62L39.30 32.62L39.30 40.30M49 40.30L56.68 40.30L56.68 32.62L49 32.62L49 40.30M29.80 30.80L37.48 30.80L37.48 23.12L29.80 23.12L29.80 30.80M10.60 30.80L18.28 30.80L18.28 23.12L10.60 23.12L10.60 30.80M39.30 30.70L46.98 30.70L46.98 23.02L39.30 23.02L39.30 30.70M49 30.70L56.68 30.70L56.68 23.02L49 23.02L49 30.70M20.10 30.80L27.78 30.80L27.78 23.12L20.10 23.12L20.10 30.80M10.60 21.20L18.28 21.20L18.28 13.52L10.60 13.52L10.60 21.20M1 21.20L8.68 21.20L8.68 13.52L1 13.52L1 21.20M29.80 11.60L37.48 11.60L37.48 3.92L29.80 3.92L29.80 11.60M10.60 11.60L18.28 11.60L18.28 3.92L10.60 3.92L10.60 11.60M39.30 11.50L46.98 11.50L46.98 3.82L39.30 3.82L39.30 11.50M49 11.50L56.68 11.50L56.68 3.82L49 3.82L49 11.50M20.10 11.60L27.78 11.60L27.78 3.92L20.10 3.92L20.10 11.60M29.80 78.80L37.48 78.80L37.48 71.12L29.80 71.12L29.80 78.80M10.60 78.80L18.28 78.80L18.28 71.12L10.60 71.12L10.60 78.80M39.30 78.70L46.98 78.70L46.98 71.02L39.30 71.02L39.30 78.70M49 78.70L56.68 78.70L56.68 71.02L49 71.02L49 78.70M20.10 78.80L27.78 78.80L27.78 71.12L20.10 71.12L20.10 78.80M1 11.60L8.68 11.60L8.68 3.92L1 3.92L1 11.60M1 30.80L8.68 30.80L8.68 23.12L1 23.12L1 30.80M1 78.80L8.68 78.80L8.68 71.12L1 71.12L1 78.80ZM97 69.20L104.68 69.20L104.68 61.52L97 61.52L97 69.20M77.80 69.20L85.48 69.20L85.48 61.52L77.80 61.52L77.80 69.20M106.50 69.10L114.18 69.10L114.18 61.42L106.50 61.42L106.50 69.10M68.20 69.20L75.88 69.20L75.88 61.52L68.20 61.52L68.20 69.20M97 59.60L104.68 59.60L104.68 51.92L97 51.92L97 59.60M77.80 59.60L85.48 59.60L85.48 51.92L77.80 51.92L77.80 59.60M106.50 59.50L114.18 59.50L114.18 51.82L106.50 51.82L106.50 59.50M68.20 59.60L75.88 59.60L75.88 51.92L68.20 51.92L68.20 59.60M97 50L104.68 50L104.68 42.32L97 42.32L97 50M77.80 50L85.48 50L85.48 42.32L77.80 42.32L77.80 50M106.50 49.90L114.18 49.90L114.18 42.22L106.50 42.22L106.50 49.90M68.20 50L75.88 50L75.88 42.32L68.20 42.32L68.20 50M97 40.40L104.68 40.40L104.68 32.72L97 32.72L97 40.40M77.80 40.40L85.48 40.40L85.48 32.72L77.80 32.72L77.80 40.40M106.50 40.30L114.18 40.30L114.18 32.62L106.50 32.62L106.50 40.30M68.20 40.40L75.88 40.40L75.88 32.72L68.20 32.72L68.20 40.40M97 30.80L104.68 30.80L104.68 23.12L97 23.12L97 30.80M77.80 30.80L85.48 30.80L85.48 23.12L77.80 23.12L77.80 30.80M106.50 30.70L114.18 30.70L114.18 23.02L106.50 23.02L106.50 30.70M68.20 30.80L75.88 30.80L75.88 23.12L68.20 23.12L68.20 30.80M87.30 30.80L94.98 30.80L94.98 23.12L87.30 23.12L87.30 30.80M97 78.80L104.68 78.80L104.68 71.12L97 71.12L97 78.80M77.80 78.80L85.48 78.80L85.48 71.12L77.80 71.12L77.80 78.80M106.50 78.70L114.18 78.70L114.18 71.02L106.50 71.02L106.50 78.70M68.20 78.80L75.88 78.80L75.88 71.12L68.20 71.12L68.20 78.80M87.30 78.80L94.98 78.80L94.98 71.12L87.30 71.12L87.30 78.80M97 88.40L104.68 88.40L104.68 80.72L97 80.72L97 88.40M106.50 88.30L114.18 88.30L114.18 80.62L106.50 80.62L106.50 88.30M97 98L104.68 98L104.68 90.32L97 90.32L97 98M106.50 97.90L114.18 97.90L114.18 90.22L106.50 90.22L106.50 97.90M97 107.60L104.68 107.60L104.68 99.92L97 99.92L97 107.60M106.50 107.50L114.18 107.50L114.18 99.82L106.50 99.82L106.50 107.50ZM154.50 69.20L162.18 69.20L162.18 61.52L154.50 61.52L154.50 69.20M135.30 69.20L142.98 69.20L142.98 61.52L135.30 61.52L135.30 69.20M164.01 69.10L171.69 69.10L171.69 61.42L164.01 61.42L164.01 69.10M125.70 69.20L133.38 69.20L133.38 61.52L125.70 61.52L125.70 69.20M154.50 59.60L162.18 59.60L162.18 51.92L154.50 51.92L154.50 59.60M135.30 59.60L142.98 59.60L142.98 51.92L135.30 51.92L135.30 59.60M164.01 59.50L171.69 59.50L171.69 51.82L164.01 51.82L164.01 59.50M125.70 59.60L133.38 59.60L133.38 51.92L125.70 51.92L125.70 59.60M154.50 50L162.18 50L162.18 42.32L154.50 42.32L154.50 50M135.30 50L142.98 50L142.98 42.32L135.30 42.32L135.30 50M164.01 49.90L171.69 49.90L171.69 42.22L164.01 42.22L164.01 49.90M125.70 50L133.38 50L133.38 42.32L125.70 42.32L125.70 50M154.50 40.40L162.18 40.40L162.18 32.72L154.50 32.72L154.50 40.40M135.30 40.40L142.98 40.40L142.98 32.72L135.30 32.72L135.30 40.40M164.01 40.30L171.69 40.30L171.69 32.62L164.01 32.62L164.01 40.30M125.70 40.40L133.38 40.40L133.38 32.72L125.70 32.72L125.70 40.40M154.50 30.80L162.18 30.80L162.18 23.12L154.50 23.12L154.50 30.80M135.30 30.80L142.98 30.80L142.98 23.12L135.30 23.12L135.30 30.80M164.01 30.70L171.69 30.70L171.69 23.02L164.01 23.02L164.01 30.70M125.70 30.80L133.38 30.80L133.38 23.12L125.70 23.12L125.70 30.80M154.50 78.80L162.18 78.80L162.18 71.12L154.50 71.12L154.50 78.80M135.30 78.80L142.98 78.80L142.98 71.12L135.30 71.12L135.30 78.80M164.01 78.70L171.69 78.70L171.69 71.02L164.01 71.02L164.01 78.70M125.70 78.80L133.38 78.80L133.38 71.12L125.70 71.12L125.70 78.80M144.81 78.80L152.49 78.80L152.49 71.12L144.81 71.12L144.81 78.80ZM212.01 69.20L219.69 69.20L219.69 61.52L212.01 61.52L212.01 69.20M192.81 69.20L200.49 69.20L200.49 61.52L192.81 61.52L192.81 69.20M221.51 69.10L229.19 69.10L229.19 61.42L221.51 61.42L221.51 69.10M183.21 69.20L190.89 69.20L190.89 61.52L183.21 61.52L183.21 69.20M212.01 59.60L219.69 59.60L219.69 51.92L212.01 51.92L212.01 59.60M192.81 59.60L200.49 59.60L200.49 51.92L192.81 51.92L192.81 59.60M221.51 59.50L229.19 59.50L229.19 51.82L221.51 51.82L221.51 59.50M183.21 59.60L190.89 59.60L190.89 51.92L183.21 51.92L183.21 59.60M212.01 50L219.69 50L219.69 42.32L212.01 42.32L212.01 50M192.81 50L200.49 50L200.49 42.32L192.81 42.32L192.81 50M221.51 49.90L229.19 49.90L229.19 42.22L221.51 42.22L221.51 49.90M183.21 50L190.89 50L190.89 42.32L183.21 42.32L183.21 50M202.31 50L209.99 50L209.99 42.32L202.31 42.32L202.31 50M212.01 40.40L219.69 40.40L219.69 32.72L212.01 32.72L212.01 40.40M221.51 40.30L229.19 40.30L229.19 32.62L221.51 32.62L221.51 40.30M212.01 30.80L219.69 30.80L219.69 23.12L212.01 23.12L212.01 30.80M192.81 30.80L200.49 30.80L200.49 23.12L192.81 23.12L192.81 30.80M221.51 30.70L229.19 30.70L229.19 23.02L221.51 23.02L221.51 30.70M183.21 30.80L190.89 30.80L190.89 23.12L183.21 23.12L183.21 30.80M202.31 30.80L209.99 30.80L209.99 23.12L202.31 23.12L202.31 30.80M212.01 78.80L219.69 78.80L219.69 71.12L212.01 71.12L212.01 78.80M192.81 78.80L200.49 78.80L200.49 71.12L192.81 71.12L192.81 78.80M221.51 78.70L229.19 78.70L229.19 71.02L221.51 71.02L221.51 78.70M183.21 78.80L190.89 78.80L190.89 71.12L183.21 71.12L183.21 78.80M202.31 78.80L209.99 78.80L209.99 71.12L202.31 71.12L202.31 78.80ZM250.50 69.20L258.18 69.20L258.18 61.52L250.50 61.52L250.50 69.20M240.90 69.20L248.58 69.20L248.58 61.52L240.90 61.52L240.90 69.20M250.50 59.60L258.18 59.60L258.18 51.92L250.50 51.92L250.50 59.60M240.90 59.60L248.58 59.60L248.58 51.92L240.90 51.92L240.90 59.60M250.50 50L258.18 50L258.18 42.32L250.50 42.32L250.50 50M240.90 50L248.58 50L248.58 42.32L240.90 42.32L240.90 50M260.49 30.70L268.17 30.70L268.17 23.02L260.49 23.02L260.49 30.70M250.50 40.40L258.18 40.40L258.18 32.72L250.50 32.72L250.50 40.40M240.90 40.40L248.58 40.40L248.58 32.72L240.90 32.72L240.90 40.40M269.70 30.80L277.38 30.80L277.38 23.12L269.70 23.12L269.70 30.80M250.50 30.80L258.18 30.80L258.18 23.12L250.50 23.12L250.50 30.80M250.50 78.80L258.18 78.80L258.18 71.12L250.50 71.12L250.50 78.80M240.90 78.80L248.58 78.80L248.58 71.12L240.90 71.12L240.90 78.80ZM298.50 69.20L306.18 69.20L306.18 61.52L298.50 61.52L298.50 69.20M288.90 69.20L296.58 69.20L296.58 61.52L288.90 61.52L288.90 69.20M298.50 59.60L306.18 59.60L306.18 51.92L298.50 51.92L298.50 59.60M288.90 59.60L296.58 59.60L296.58 51.92L288.90 51.92L288.90 59.60M317.70 50L325.38 50L325.38 42.32L317.70 42.32L317.70 50M298.50 50L306.18 50L306.18 42.32L298.50 42.32L298.50 50M327.21 49.90L334.89 49.90L334.89 42.22L327.21 42.22L327.21 49.90M288.90 50L296.58 50L296.58 42.32L288.90 42.32L288.90 50M308.01 50L315.69 50L315.69 42.32L308.01 42.32L308.01 50M317.70 40.40L325.38 40.40L325.38 32.72L317.70 32.72L317.70 40.40M298.50 40.40L306.18 40.40L306.18 32.72L298.50 32.72L298.50 40.40M327.21 40.30L334.89 40.30L334.89 32.62L327.21 32.62L327.21 40.30M288.90 40.40L296.58 40.40L296.58 32.72L288.90 32.72L288.90 40.40M317.70 30.80L325.38 30.80L325.38 23.12L317.70 23.12L317.70 30.80M298.50 30.80L306.18 30.80L306.18 23.12L298.50 23.12L298.50 30.80M327.21 30.70L334.89 30.70L334.89 23.02L327.21 23.02L327.21 30.70M288.90 30.80L296.58 30.80L296.58 23.12L288.90 23.12L288.90 30.80M308.01 30.80L315.69 30.80L315.69 23.12L308.01 23.12L308.01 30.80M317.70 78.80L325.38 78.80L325.38 71.12L317.70 71.12L317.70 78.80M298.50 78.80L306.18 78.80L306.18 71.12L298.50 71.12L298.50 78.80M327.21 78.70L334.89 78.70L334.89 71.02L327.21 71.02L327.21 78.70M288.90 78.80L296.58 78.80L296.58 71.12L288.90 71.12L288.90 78.80M308.01 78.80L315.69 78.80L315.69 71.12L308.01 71.12L308.01 78.80Z"></path></svg>