<svg version="1.1" xmlns="http://www.w3.org/2000/svg" xmlns:xlink="http://www.w3.org/1999/xlink" role="img" width="161" height="67" viewbox="0 0 161 67"><title>npm </title><path fill="#cb3837" d="M44.20 16.40L44.20 59.60L1 59.60L1 16.40L44.20 16.40M8.20 23.60L8.20 52.40L22.60 52.40L22.60 30.80L29.80 30.80L29.80 52.40L37.00 52.40L37.00 23.60L8.20 23.60ZM80.20 16.40L80.20 59.60L65.80 59.60L65.80 66.80L37.00 66.80L37.00 16.40L80.20 16.40M44.20 23.60L44.20 59.60L58.60 59.60L58.60 52.40L73.00 52.40L73.00 23.60L44.20 23.60M58.60 30.80L65.80 30.80L65.80 45.20L58.60 45.20L58.60 30.80ZM80.20 23.60L80.20 52.40L94.60 52.40L94.60 30.80L101.80 30.80L101.80 52.40L109.00 52.40L109.00 30.80L116.20 30.80L116.20 52.40L123.40 52.40L123.40 23.60L80.20 23.60M73.00 59.60L73.00 16.40L130.60 16.40L130.60 59.60L73.00 59.60Z"></path></svg>