<svg version="1.1" xmlns="http://www.w3.org/2000/svg" xmlns:xlink="http://www.w3.org/1999/xlink" role="img" width="460" height="67" viewbox="0 0 460 67"><title>Gubblebum </title><path fill="#fc428f" d="M26.20 9.20Q51.40 9.20 51.40 34.40Q51.40 59.60 26.20 59.60Q1 59.60 1 34.40Q1 9.20 26.20 9.20M26.20 16.40Q8.20 16.40 8.20 34.40Q8.20 52.40 26.20 52.40Q44.20 52.40 44.20 41.60Q44.20 30.80 37.00 30.80Q29.80 30.80 29.80 38.00Q29.80 45.20 26.20 45.20Q22.60 45.20 22.60 34.40Q22.60 23.60 33.40 23.60Q44.20 23.60 44.20 20.00Q44.20 16.40 26.20 16.40Z"></path><path fill="#6af72e" d="M75.80 16.40Q97.40 16.40 97.40 38.00Q97.40 59.60 75.80 59.60Q54.20 59.60 54.20 38.00Q54.20 16.40 75.80 16.40M68.60 23.60Q61.40 23.60 61.40 38.00Q61.40 52.40 75.80 52.40Q90.20 52.40 90.20 38.00Q90.20 23.60 86.60 23.60Q83 23.60 83 34.40Q83 45.20 79.40 45.20Q75.80 45.20 75.80 34.40Q75.80 23.60 68.60 23.60Z"></path><path fill="#6af72e" d="M114.60 9.20Q129.00 9.20 129.00 12.80Q129.00 16.40 136.20 16.40Q143.40 16.40 143.40 38.00Q143.40 59.60 121.80 59.60Q100.20 59.60 100.20 34.40Q100.20 9.20 114.60 9.20M114.60 16.40Q107.40 16.40 107.40 34.40Q107.40 52.40 121.80 52.40Q136.20 52.40 136.20 38.00Q136.20 23.60 129.00 23.60Q121.80 23.60 121.80 20.00Q121.80 16.40 114.60 16.40M121.80 38.00Q121.80 30.80 125.40 30.80Q129.00 30.80 129.00 38.00Q129.00 45.20 125.40 45.20Q121.80 45.20 121.80 38.00Z"></path><path fill="#6af72e" d="M160.60 9.20Q175.00 9.20 175.00 12.80Q175.00 16.40 182.20 16.40Q189.40 16.40 189.40 38.00Q189.40 59.60 167.80 59.60Q146.20 59.60 146.20 34.40Q146.20 9.20 160.60 9.20M160.60 16.40Q153.40 16.40 153.40 34.40Q153.40 52.40 167.80 52.40Q182.20 52.40 182.20 38.00Q182.20 23.60 175.00 23.60Q167.80 23.60 167.80 20.00Q167.80 16.40 160.60 16.40M167.80 38.00Q167.80 30.80 171.40 30.80Q175.00 30.80 175.00 38.00Q175.00 45.20 171.40 45.20Q167.80 45.20 167.80 38.00Z"></path><path fill="#6af72e" d="M206.60 9.20Q221.00 9.20 221.00 34.40Q221.00 59.60 206.60 59.60Q192.20 59.60 192.20 34.40Q192.20 9.20 206.60 9.20M206.60 16.40Q199.40 16.40 199.40 34.40Q199.40 52.40 206.60 52.40Q213.80 52.40 213.80 34.40Q213.80 16.40 206.60 16.40Z"></path><path fill="#6af72e" d="M245.40 16.40Q267 16.40 267 38.00Q267 59.60 245.40 59.60Q223.80 59.60 223.80 38.00Q223.80 16.40 245.40 16.40M245.40 23.60Q231 23.60 231 38.00Q231 52.40 245.40 52.40Q259.80 52.40 259.80 48.80Q259.80 45.20 256.20 45.20Q252.60 45.20 252.60 41.60Q252.60 38.00 256.20 38.00Q259.80 38.00 259.80 30.80Q259.80 23.60 245.40 23.60M238.20 38.00Q238.20 30.80 241.80 30.80Q245.40 30.80 245.40 38.00Q245.40 45.20 241.80 45.20Q238.20 45.20 238.20 38.00Z"></path><path fill="#6af72e" d="M284.20 9.20Q298.60 9.20 298.60 12.80Q298.60 16.40 305.80 16.40Q313 16.40 313 38.00Q313 59.60 291.40 59.60Q269.80 59.60 269.80 34.40Q269.80 9.20 284.20 9.20M284.20 16.40Q277 16.40 277 34.40Q277 52.40 291.40 52.40Q305.80 52.40 305.80 38.00Q305.80 23.60 298.60 23.60Q291.40 23.60 291.40 20.00Q291.40 16.40 284.20 16.40M291.40 38.00Q291.40 30.80 295 30.80Q298.60 30.80 298.60 38.00Q298.60 45.20 295 45.20Q291.40 45.20 291.40 38.00Z"></path><path fill="#6af72e" d="M337.40 16.40Q359 16.40 359 38.00Q359 59.60 337.40 59.60Q315.80 59.60 315.80 38.00Q315.80 16.40 337.40 16.40M330.20 23.60Q323 23.60 323 38.00Q323 52.40 337.40 52.40Q351.80 52.40 351.80 38.00Q351.80 23.60 348.20 23.60Q344.60 23.60 344.60 34.40Q344.60 45.20 341 45.20Q337.40 45.20 337.40 34.40Q337.40 23.60 330.20 23.60Z"></path><path fill="#6af72e" d="M390.60 23.60Q369 23.60 369 38.00Q369 52.40 376.20 52.40Q383.40 52.40 383.40 41.60Q383.40 30.80 387 30.80Q390.60 30.80 390.60 41.60Q390.60 52.40 394.20 52.40Q397.80 52.40 397.80 41.60Q397.80 30.80 401.40 30.80Q405 30.80 405 41.60Q405 52.40 408.60 52.40Q412.20 52.40 412.20 38.00Q412.20 23.60 390.60 23.60M390.60 59.60Q361.80 59.60 361.80 38.00Q361.80 16.40 390.60 16.40Q419.40 16.40 419.40 38.00Q419.40 59.60 390.60 59.60Z"></path></svg>