<svg version="1.1" xmlns="http://www.w3.org/2000/svg" xmlns:xlink="http://www.w3.org/1999/xlink" role="img" width="390" height="67" viewbox="0 0 390 67"><title>NATSORT </title><path fill="#6ccb99" d="M26.20 9.20Q51.40 9.20 51.40 34.40Q51.40 59.60 26.20 59.60Q1 59.60 1 34.40Q1 9.20 26.20 9.20M11.80 16.40Q8.20 16.40 8.20 34.40Q8.20 52.40 15.40 52.40Q22.60 52.40 22.60 41.60Q22.60 30.80 26.20 30.80Q29.80 30.80 29.80 41.60Q29.80 52.40 37.00 52.40Q44.20 52.40 44.20 34.40Q44.20 16.40 33.40 16.40Q22.60 16.40 22.60 20.00Q22.60 23.60 19.00 23.60Q15.40 23.60 15.40 20.00Q15.40 16.40 11.80 16.40ZM49.20 34.40Q49.20 9.20 74.40 9.20Q99.60 9.20 99.60 34.40Q99.60 59.60 74.40 59.60Q49.20 59.60 49.20 34.40M74.40 16.40Q56.40 16.40 56.40 34.40Q56.40 52.40 63.60 52.40Q70.80 52.40 70.80 45.20Q70.80 38.00 74.40 38.00Q78 38.00 78 45.20Q78 52.40 85.20 52.40Q92.40 52.40 92.40 34.40Q92.40 16.40 74.40 16.40M70.80 27.20Q70.80 23.60 74.40 23.60Q78 23.60 78 27.20Q78 30.80 74.40 30.80Q70.80 30.80 70.80 27.20ZM126.20 9.20Q155 9.20 155 23.60Q155 38.00 147.80 38.00Q140.60 38.00 140.60 48.80Q140.60 59.60 126.20 59.60Q111.80 59.60 111.80 48.80Q111.80 38.00 104.60 38.00Q97.40 38.00 97.40 23.60Q97.40 9.20 126.20 9.20M126.20 16.40Q104.60 16.40 104.60 23.60Q104.60 30.80 111.80 30.80Q119 30.80 119 41.60Q119 52.40 126.20 52.40Q133.40 52.40 133.40 41.60Q133.40 30.80 140.60 30.80Q147.80 30.80 147.80 23.60Q147.80 16.40 126.20 16.40ZM178 9.20Q203.20 9.20 203.20 34.40Q203.20 59.60 178 59.60Q152.80 59.60 152.80 34.40Q152.80 9.20 178 9.20M178 16.40Q160 16.40 160 27.20Q160 38.00 167.20 38.00Q174.40 38.00 174.40 41.60Q174.40 45.20 167.20 45.20Q160 45.20 160 48.80Q160 52.40 178 52.40Q196 52.40 196 41.60Q196 30.80 188.80 30.80Q181.60 30.80 181.60 27.20Q181.60 23.60 188.80 23.60Q196 23.60 196 20.00Q196 16.40 178 16.40ZM226.20 9.20Q251.40 9.20 251.40 34.40Q251.40 59.60 226.20 59.60Q201 59.60 201 34.40Q201 9.20 226.20 9.20M226.20 16.40Q208.20 16.40 208.20 34.40Q208.20 52.40 226.20 52.40Q244.20 52.40 244.20 34.40Q244.20 16.40 226.20 16.40M222.60 34.40Q222.60 23.60 226.20 23.60Q229.80 23.60 229.80 34.40Q229.80 45.20 226.20 45.20Q222.60 45.20 222.60 34.40ZM274.40 9.20Q299.60 9.20 299.60 34.40Q299.60 59.60 274.40 59.60Q249.20 59.60 249.20 34.40Q249.20 9.20 274.40 9.20M274.40 16.40Q256.40 16.40 256.40 34.40Q256.40 52.40 263.60 52.40Q270.80 52.40 270.80 45.20Q270.80 38.00 274.40 38.00Q278 38.00 278 45.20Q278 52.40 285.20 52.40Q292.40 52.40 292.40 45.20Q292.40 38.00 288.80 38.00Q285.20 38.00 285.20 34.40Q285.20 30.80 288.80 30.80Q292.40 30.80 292.40 23.60Q292.40 16.40 274.40 16.40M270.80 27.20Q270.80 23.60 274.40 23.60Q278 23.60 278 27.20Q278 30.80 274.40 30.80Q270.80 30.80 270.80 27.20ZM326.20 9.20Q355 9.20 355 23.60Q355 38.00 347.80 38.00Q340.60 38.00 340.60 48.80Q340.60 59.60 326.20 59.60Q311.80 59.60 311.80 48.80Q311.80 38.00 304.60 38.00Q297.40 38.00 297.40 23.60Q297.40 9.20 326.20 9.20M326.20 16.40Q304.60 16.40 304.60 23.60Q304.60 30.80 311.80 30.80Q319 30.80 319 41.60Q319 52.40 326.20 52.40Q333.40 52.40 333.40 41.60Q333.40 30.80 340.60 30.80Q347.80 30.80 347.80 23.60Q347.80 16.40 326.20 16.40Z"></path></svg>